<mxfile host="65bd71144e">
    <diagram id="77SJs8YhrJnuFPgeouHo" name="Page-1">
        <mxGraphModel dx="1616" dy="2409" grid="1" gridSize="10" guides="1" tooltips="1" connect="1" arrows="1" fold="1" page="1" pageScale="1" pageWidth="827" pageHeight="1169" math="0" shadow="1">
            <root>
                <mxCell id="0"/>
                <mxCell id="1" parent="0"/>
                <mxCell id="g_Jz8rLOQR5H11ijxiBF-82" value="" style="rounded=0;whiteSpace=wrap;html=1;sketch=0;fontSize=14;fontFamily=Helvetica;labelBackgroundColor=none;fillColor=#f5f5f5;fontColor=#333333;strokeColor=#000000;strokeWidth=2;" parent="1" vertex="1">
                    <mxGeometry x="30" width="1270" height="920" as="geometry"/>
                </mxCell>
                <mxCell id="ynAYVbjxXFCVVAlDxMAP-36" value="" style="rounded=0;whiteSpace=wrap;html=1;sketch=0;fillStyle=solid;fontSize=14;fontFamily=Helvetica;labelBackgroundColor=none;fillColor=none;strokeWidth=2;" parent="1" vertex="1">
                    <mxGeometry x="440" y="60" width="820" height="670" as="geometry"/>
                </mxCell>
                <mxCell id="g_Jz8rLOQR5H11ijxiBF-36" value="" style="rounded=0;whiteSpace=wrap;html=1;sketch=0;fillStyle=solid;fillColor=#fff2cc;spacing=2;fontSize=14;fontFamily=Helvetica;labelBackgroundColor=none;strokeColor=default;strokeWidth=2;" parent="1" vertex="1">
                    <mxGeometry x="1050" y="216" width="180" height="394" as="geometry"/>
                </mxCell>
                <mxCell id="g_Jz8rLOQR5H11ijxiBF-1" value="" style="rounded=0;whiteSpace=wrap;html=1;sketch=0;fillStyle=solid;fillColor=#fff2cc;spacing=2;fontSize=14;fontFamily=Helvetica;labelBackgroundColor=none;strokeColor=default;strokeWidth=2;" parent="1" vertex="1">
                    <mxGeometry x="610" y="217.75" width="410" height="492.25" as="geometry"/>
                </mxCell>
                <mxCell id="g_Jz8rLOQR5H11ijxiBF-34" value="" style="rounded=0;whiteSpace=wrap;html=1;sketch=0;fillColor=none;fontSize=14;fontFamily=Helvetica;labelBackgroundColor=none;strokeWidth=2;" parent="1" vertex="1">
                    <mxGeometry x="856.98" y="365" width="140" height="300" as="geometry"/>
                </mxCell>
                <mxCell id="ynAYVbjxXFCVVAlDxMAP-2" value="" style="endArrow=none;html=1;rounded=0;strokeColor=#000000;fontSize=14;fontFamily=Helvetica;strokeWidth=2;labelBackgroundColor=none;" parent="1" edge="1">
                    <mxGeometry width="50" height="50" relative="1" as="geometry">
                        <mxPoint x="134" y="920" as="sourcePoint"/>
                        <mxPoint x="134" as="targetPoint"/>
                    </mxGeometry>
                </mxCell>
                <mxCell id="g_Jz8rLOQR5H11ijxiBF-83" value="" style="edgeStyle=orthogonalEdgeStyle;rounded=0;orthogonalLoop=1;jettySize=auto;html=1;fontSize=14;strokeWidth=2;fontFamily=Helvetica;endArrow=block;endFill=1;labelBackgroundColor=none;" parent="1" source="ynAYVbjxXFCVVAlDxMAP-3" edge="1">
                    <mxGeometry relative="1" as="geometry">
                        <mxPoint x="160" y="237.5" as="targetPoint"/>
                    </mxGeometry>
                </mxCell>
                <mxCell id="ynAYVbjxXFCVVAlDxMAP-3" value="Users" style="sketch=0;outlineConnect=0;fontColor=#232F3E;gradientColor=none;strokeColor=#000000;fillColor=none;dashed=0;verticalLabelPosition=bottom;verticalAlign=top;align=center;html=1;fontSize=14;fontStyle=0;aspect=fixed;shape=mxgraph.aws4.resourceIcon;resIcon=mxgraph.aws4.users;fontFamily=Helvetica;labelBackgroundColor=none;" parent="1" vertex="1">
                    <mxGeometry x="60" y="217.75" width="40" height="40" as="geometry"/>
                </mxCell>
                <mxCell id="ynAYVbjxXFCVVAlDxMAP-5" value="Actors" style="text;strokeColor=none;fillColor=none;align=center;verticalAlign=middle;rounded=0;fontSize=20;fontStyle=0;fontFamily=Helvetica;labelBackgroundColor=none;fontColor=#FF0080;shadow=0;sketch=0;html=1;whiteSpace=wrap;labelBorderColor=none;" parent="1" vertex="1">
                    <mxGeometry x="50" y="-44" width="60" height="30" as="geometry"/>
                </mxCell>
                <mxCell id="g_Jz8rLOQR5H11ijxiBF-91" value="" style="edgeStyle=orthogonalEdgeStyle;rounded=0;orthogonalLoop=1;jettySize=auto;html=1;fontSize=14;entryX=0;entryY=0.5;entryDx=0;entryDy=0;entryPerimeter=0;strokeWidth=2;fontFamily=Helvetica;endArrow=block;endFill=1;labelBackgroundColor=none;" parent="1" source="ynAYVbjxXFCVVAlDxMAP-6" target="ynAYVbjxXFCVVAlDxMAP-13" edge="1">
                    <mxGeometry relative="1" as="geometry"/>
                </mxCell>
                <mxCell id="ynAYVbjxXFCVVAlDxMAP-6" value="Developers" style="sketch=0;pointerEvents=1;shadow=0;dashed=0;html=1;strokeColor=#000000;fillColor=#33001A;labelPosition=center;verticalLabelPosition=bottom;verticalAlign=top;outlineConnect=0;align=center;shape=mxgraph.office.users.administrator;fontSize=14;fontFamily=Helvetica;labelBackgroundColor=none;" parent="1" vertex="1">
                    <mxGeometry x="60" y="560" width="37" height="39" as="geometry"/>
                </mxCell>
                <mxCell id="ynAYVbjxXFCVVAlDxMAP-7" value="" style="endArrow=none;html=1;rounded=0;strokeColor=#000000;fontSize=14;fontFamily=Helvetica;strokeWidth=2;labelBackgroundColor=none;" parent="1" edge="1">
                    <mxGeometry width="50" height="50" relative="1" as="geometry">
                        <mxPoint x="340" y="920" as="sourcePoint"/>
                        <mxPoint x="340" as="targetPoint"/>
                    </mxGeometry>
                </mxCell>
                <mxCell id="ynAYVbjxXFCVVAlDxMAP-8" value="Internet" style="text;strokeColor=none;fillColor=none;align=center;verticalAlign=middle;rounded=0;fontSize=20;fontFamily=Helvetica;labelBackgroundColor=none;fontColor=#FF0080;fontStyle=0;shadow=0;sketch=0;html=1;whiteSpace=wrap;labelBorderColor=none;" parent="1" vertex="1">
                    <mxGeometry x="210" y="-44" width="60" height="30" as="geometry"/>
                </mxCell>
                <mxCell id="ynAYVbjxXFCVVAlDxMAP-9" value="Cloud" style="text;strokeColor=none;fillColor=none;align=center;verticalAlign=middle;rounded=0;fontSize=20;fontFamily=Helvetica;labelBackgroundColor=none;fontColor=#FF0080;fontStyle=0;shadow=0;sketch=0;html=1;whiteSpace=wrap;labelBorderColor=none;" parent="1" vertex="1">
                    <mxGeometry x="796.98" y="-44" width="60" height="30" as="geometry"/>
                </mxCell>
                <mxCell id="ynAYVbjxXFCVVAlDxMAP-10" value="" style="rounded=0;whiteSpace=wrap;html=1;sketch=0;fillStyle=solid;fillColor=none;fontSize=14;fontFamily=Helvetica;labelBackgroundColor=none;" parent="1" vertex="1">
                    <mxGeometry x="160" y="162" width="160" height="140" as="geometry"/>
                </mxCell>
                <mxCell id="ynAYVbjxXFCVVAlDxMAP-11" value="Web&lt;br style=&quot;font-size: 14px;&quot;&gt;Browser" style="sketch=0;pointerEvents=1;shadow=0;dashed=0;html=1;strokeColor=#000000;fillColor=#000000;aspect=fixed;labelPosition=center;verticalLabelPosition=bottom;verticalAlign=top;align=center;outlineConnect=0;shape=mxgraph.vvd.web_browser;fillStyle=solid;fontSize=14;fontFamily=Helvetica;labelBackgroundColor=none;" parent="1" vertex="1">
                    <mxGeometry x="216.75" y="211" width="50" height="35.5" as="geometry"/>
                </mxCell>
                <mxCell id="ynAYVbjxXFCVVAlDxMAP-13" value="Developer Api Portal" style="sketch=0;pointerEvents=1;shadow=0;dashed=0;html=1;strokeColor=none;labelPosition=center;verticalLabelPosition=bottom;verticalAlign=top;align=center;fillColor=#000000;shape=mxgraph.mscae.intune.company_portal;fillStyle=solid;fontSize=14;fontFamily=Helvetica;labelBackgroundColor=none;" parent="1" vertex="1">
                    <mxGeometry x="210" y="560.5" width="50" height="38" as="geometry"/>
                </mxCell>
                <mxCell id="g_Jz8rLOQR5H11ijxiBF-107" value="" style="edgeStyle=orthogonalEdgeStyle;rounded=0;orthogonalLoop=1;jettySize=auto;html=1;fontFamily=Helvetica;fontSize=14;endArrow=block;endFill=1;strokeWidth=2;labelBackgroundColor=none;exitX=0.75;exitY=1;exitDx=0;exitDy=0;startArrow=block;startFill=1;" parent="1" target="g_Jz8rLOQR5H11ijxiBF-9" edge="1">
                    <mxGeometry relative="1" as="geometry">
                        <mxPoint x="282" y="302" as="sourcePoint"/>
                        <mxPoint x="651" y="505" as="targetPoint"/>
                        <Array as="points">
                            <mxPoint x="282" y="360"/>
                            <mxPoint x="530" y="360"/>
                        </Array>
                    </mxGeometry>
                </mxCell>
                <mxCell id="g_Jz8rLOQR5H11ijxiBF-108" value="https" style="edgeLabel;html=1;align=center;verticalAlign=middle;resizable=0;points=[];fontSize=14;fontFamily=Helvetica;labelBackgroundColor=none;" parent="g_Jz8rLOQR5H11ijxiBF-107" vertex="1" connectable="0">
                    <mxGeometry x="-0.3661" relative="1" as="geometry">
                        <mxPoint x="-62" y="-11" as="offset"/>
                    </mxGeometry>
                </mxCell>
                <mxCell id="ynAYVbjxXFCVVAlDxMAP-26" value="" style="rounded=0;whiteSpace=wrap;html=1;sketch=0;fillStyle=solid;fillColor=none;direction=south;fontSize=14;fontFamily=Helvetica;labelBackgroundColor=none;strokeWidth=2;" parent="1" vertex="1">
                    <mxGeometry x="360" y="10" width="50" height="830" as="geometry"/>
                </mxCell>
                <mxCell id="ynAYVbjxXFCVVAlDxMAP-27" value="" style="rounded=0;whiteSpace=wrap;html=1;sketch=0;fillStyle=solid;fillColor=none;direction=west;fontSize=14;fontFamily=Helvetica;labelBackgroundColor=none;strokeWidth=2;" parent="1" vertex="1">
                    <mxGeometry x="360" y="840" width="920" height="50" as="geometry"/>
                </mxCell>
                <mxCell id="ynAYVbjxXFCVVAlDxMAP-28" value="Firewall" style="sketch=0;outlineConnect=0;fontColor=#232F3E;gradientColor=none;fillColor=#232F3D;strokeColor=none;dashed=0;verticalLabelPosition=bottom;verticalAlign=top;align=center;html=1;fontSize=14;fontStyle=0;aspect=fixed;pointerEvents=1;shape=mxgraph.aws4.generic_firewall;rounded=1;fillStyle=solid;fontFamily=Helvetica;labelBackgroundColor=none;" parent="1" vertex="1">
                    <mxGeometry x="367.28" y="20" width="35.45" height="30" as="geometry"/>
                </mxCell>
                <mxCell id="ynAYVbjxXFCVVAlDxMAP-29" value="Firewall" style="sketch=0;outlineConnect=0;fontColor=#232F3E;gradientColor=none;fillColor=#232F3D;strokeColor=none;dashed=0;verticalLabelPosition=bottom;verticalAlign=top;align=center;html=1;fontSize=14;fontStyle=0;aspect=fixed;pointerEvents=1;shape=mxgraph.aws4.generic_firewall;rounded=1;fillStyle=solid;fontFamily=Helvetica;labelBackgroundColor=none;" parent="1" vertex="1">
                    <mxGeometry x="367.28" y="431" width="35.45" height="30" as="geometry"/>
                </mxCell>
                <mxCell id="ynAYVbjxXFCVVAlDxMAP-30" value="Firewall" style="sketch=0;outlineConnect=0;fontColor=#232F3E;gradientColor=none;fillColor=#232F3D;strokeColor=none;dashed=0;verticalLabelPosition=bottom;verticalAlign=top;align=center;html=1;fontSize=14;fontStyle=0;aspect=fixed;pointerEvents=1;shape=mxgraph.aws4.generic_firewall;rounded=1;fillStyle=solid;fontFamily=Helvetica;spacing=1;labelBackgroundColor=none;" parent="1" vertex="1">
                    <mxGeometry x="367.28" y="840" width="35.45" height="30" as="geometry"/>
                </mxCell>
                <mxCell id="ynAYVbjxXFCVVAlDxMAP-31" value="Firewall" style="sketch=0;outlineConnect=0;fontColor=#232F3E;gradientColor=none;fillColor=#232F3D;strokeColor=none;dashed=0;verticalLabelPosition=bottom;verticalAlign=top;align=center;html=1;fontSize=14;fontStyle=0;aspect=fixed;pointerEvents=1;shape=mxgraph.aws4.generic_firewall;rounded=1;fillStyle=solid;fontFamily=Helvetica;spacing=1;labelBackgroundColor=none;" parent="1" vertex="1">
                    <mxGeometry x="818.4699999999999" y="840" width="35.45" height="30" as="geometry"/>
                </mxCell>
                <mxCell id="ynAYVbjxXFCVVAlDxMAP-32" value="Firewall" style="sketch=0;outlineConnect=0;fontColor=#232F3E;gradientColor=none;fillColor=#232F3D;strokeColor=none;dashed=0;verticalLabelPosition=bottom;verticalAlign=top;align=center;html=1;fontSize=14;fontStyle=0;aspect=fixed;pointerEvents=1;shape=mxgraph.aws4.generic_firewall;rounded=1;fillStyle=solid;fontFamily=Helvetica;spacing=1;labelBackgroundColor=none;" parent="1" vertex="1">
                    <mxGeometry x="1230.1399999999999" y="840" width="35.45" height="30" as="geometry"/>
                </mxCell>
                <mxCell id="ynAYVbjxXFCVVAlDxMAP-47" value="Dudhwala Platform Components" style="text;html=1;strokeColor=none;fillColor=none;align=left;verticalAlign=middle;whiteSpace=wrap;rounded=0;sketch=0;fillStyle=solid;fontSize=14;fontFamily=Helvetica;labelBackgroundColor=none;" parent="1" vertex="1">
                    <mxGeometry x="458" y="60" width="212" height="20" as="geometry"/>
                </mxCell>
                <mxCell id="ynAYVbjxXFCVVAlDxMAP-48" value="" style="verticalLabelPosition=bottom;html=1;verticalAlign=top;align=center;strokeColor=none;fillColor=#000000;shape=mxgraph.azure.cloud_service;rounded=1;sketch=0;fillStyle=solid;fontSize=14;fontFamily=Helvetica;labelBackgroundColor=none;" parent="1" vertex="1">
                    <mxGeometry x="440" y="62" width="16" height="16" as="geometry"/>
                </mxCell>
                <mxCell id="g_Jz8rLOQR5H11ijxiBF-98" value="" style="edgeStyle=orthogonalEdgeStyle;rounded=0;orthogonalLoop=1;jettySize=auto;html=1;fontFamily=Helvetica;fontSize=14;endArrow=block;endFill=1;strokeWidth=2;entryX=0.75;entryY=0;entryDx=0;entryDy=0;startArrow=block;labelBackgroundColor=none;startFill=1;" parent="1" source="Ymq33q0fTEQCnjx2ZNob-4" target="ynAYVbjxXFCVVAlDxMAP-10" edge="1">
                    <mxGeometry relative="1" as="geometry">
                        <mxPoint x="530" y="145" as="targetPoint"/>
                        <Array as="points">
                            <mxPoint x="280" y="130"/>
                        </Array>
                    </mxGeometry>
                </mxCell>
                <mxCell id="g_Jz8rLOQR5H11ijxiBF-99" value="https" style="edgeLabel;html=1;align=center;verticalAlign=middle;resizable=0;points=[];fontSize=14;fontFamily=Helvetica;labelBackgroundColor=none;" parent="g_Jz8rLOQR5H11ijxiBF-98" vertex="1" connectable="0">
                    <mxGeometry x="0.6637" relative="1" as="geometry">
                        <mxPoint x="10" y="10" as="offset"/>
                    </mxGeometry>
                </mxCell>
                <mxCell id="ynAYVbjxXFCVVAlDxMAP-51" value="" style="rounded=0;whiteSpace=wrap;html=1;sketch=0;fillStyle=solid;fillColor=#fff2cc;fontSize=14;fontFamily=Helvetica;labelBackgroundColor=none;strokeColor=default;strokeWidth=2;" parent="1" vertex="1">
                    <mxGeometry x="610" y="100" width="410" height="90" as="geometry"/>
                </mxCell>
                <mxCell id="ynAYVbjxXFCVVAlDxMAP-53" value="Presentation Tier" style="text;html=1;strokeColor=none;fillColor=none;align=left;verticalAlign=middle;whiteSpace=wrap;rounded=0;sketch=0;fillStyle=solid;fontSize=14;fontFamily=Helvetica;labelBackgroundColor=none;" parent="1" vertex="1">
                    <mxGeometry x="628" y="100" width="202" height="20" as="geometry"/>
                </mxCell>
                <mxCell id="ynAYVbjxXFCVVAlDxMAP-54" value="" style="verticalLabelPosition=bottom;html=1;verticalAlign=top;align=center;strokeColor=none;fillColor=#000000;shape=mxgraph.azure.cloud_service;rounded=1;sketch=0;fillStyle=solid;fontSize=14;fontFamily=Helvetica;labelBackgroundColor=none;" parent="1" vertex="1">
                    <mxGeometry x="610" y="101" width="16" height="16" as="geometry"/>
                </mxCell>
                <mxCell id="ynAYVbjxXFCVVAlDxMAP-61" value="Dudhwala Web Portal" style="sketch=0;dashed=0;connectable=0;html=1;fillColor=#000000;strokeColor=none;shape=mxgraph.gcp2.application;part=1;rounded=1;fillStyle=solid;fontSize=14;labelPosition=center;verticalLabelPosition=bottom;align=center;verticalAlign=top;fontFamily=Helvetica;labelBackgroundColor=none;" parent="1" vertex="1">
                    <mxGeometry x="690" y="125" width="50" height="40" as="geometry"/>
                </mxCell>
                <mxCell id="ynAYVbjxXFCVVAlDxMAP-62" value="BI Reporting" style="sketch=0;dashed=0;connectable=0;html=1;fillColor=#000000;strokeColor=none;shape=mxgraph.gcp2.application;part=1;rounded=1;fillStyle=solid;fontSize=14;labelPosition=center;verticalLabelPosition=bottom;align=center;verticalAlign=top;fontFamily=Helvetica;labelBackgroundColor=none;" parent="1" vertex="1">
                    <mxGeometry x="922" y="124" width="50" height="40" as="geometry"/>
                </mxCell>
                <mxCell id="g_Jz8rLOQR5H11ijxiBF-2" value="App Tier" style="text;html=1;strokeColor=none;fillColor=none;align=left;verticalAlign=middle;whiteSpace=wrap;rounded=0;sketch=0;fillStyle=solid;fontSize=14;fontFamily=Helvetica;labelBackgroundColor=none;" parent="1" vertex="1">
                    <mxGeometry x="628" y="218.75" width="92" height="20" as="geometry"/>
                </mxCell>
                <mxCell id="g_Jz8rLOQR5H11ijxiBF-3" value="" style="verticalLabelPosition=bottom;html=1;verticalAlign=top;align=center;strokeColor=none;fillColor=#000000;shape=mxgraph.azure.cloud_service;rounded=1;sketch=0;fillStyle=solid;fontSize=14;fontFamily=Helvetica;labelBackgroundColor=none;" parent="1" vertex="1">
                    <mxGeometry x="610" y="219.75" width="16" height="16" as="geometry"/>
                </mxCell>
                <mxCell id="g_Jz8rLOQR5H11ijxiBF-5" value="" style="rounded=0;whiteSpace=wrap;html=1;sketch=0;fillColor=none;fontSize=14;fontFamily=Helvetica;labelBackgroundColor=none;strokeWidth=2;" parent="1" vertex="1">
                    <mxGeometry x="710" y="240" width="300" height="62" as="geometry"/>
                </mxCell>
                <mxCell id="g_Jz8rLOQR5H11ijxiBF-6" value="File Store" style="sketch=0;outlineConnect=0;fontColor=#232F3E;gradientColor=none;fillColor=#000000;strokeColor=none;dashed=0;verticalLabelPosition=bottom;verticalAlign=top;align=center;html=1;fontSize=14;fontStyle=0;aspect=fixed;pointerEvents=1;shape=mxgraph.aws4.bucket_with_objects;fontFamily=Helvetica;labelBackgroundColor=none;" parent="1" vertex="1">
                    <mxGeometry x="736.01" y="245.19" width="28.85" height="30" as="geometry"/>
                </mxCell>
                <mxCell id="g_Jz8rLOQR5H11ijxiBF-7" value="Secret Vault" style="sketch=0;outlineConnect=0;fontColor=#232F3E;gradientColor=none;fillColor=#000000;strokeColor=none;dashed=0;verticalLabelPosition=bottom;verticalAlign=top;align=center;html=1;fontSize=14;fontStyle=0;aspect=fixed;pointerEvents=1;shape=mxgraph.aws4.vault;fontFamily=Helvetica;labelBackgroundColor=none;" parent="1" vertex="1">
                    <mxGeometry x="820.24" y="245.06" width="23.95" height="30.13" as="geometry"/>
                </mxCell>
                <mxCell id="g_Jz8rLOQR5H11ijxiBF-8" value="Cache" style="sketch=0;outlineConnect=0;fontColor=#232F3E;gradientColor=none;fillColor=#000000;strokeColor=none;dashed=0;verticalLabelPosition=bottom;verticalAlign=top;align=center;html=1;fontSize=14;fontStyle=0;aspect=fixed;pointerEvents=1;shape=mxgraph.aws4.cache_node;fontFamily=Helvetica;labelBackgroundColor=none;" parent="1" vertex="1">
                    <mxGeometry x="885.89" y="245.19" width="30" height="30" as="geometry"/>
                </mxCell>
                <mxCell id="g_Jz8rLOQR5H11ijxiBF-113" value="" style="edgeStyle=orthogonalEdgeStyle;rounded=0;orthogonalLoop=1;jettySize=auto;html=1;fontFamily=Helvetica;fontSize=14;endArrow=block;endFill=1;strokeWidth=2;entryX=0;entryY=0.75;entryDx=0;entryDy=0;labelBackgroundColor=none;" parent="1" source="g_Jz8rLOQR5H11ijxiBF-9" target="g_Jz8rLOQR5H11ijxiBF-27" edge="1">
                    <mxGeometry relative="1" as="geometry"/>
                </mxCell>
                <mxCell id="g_Jz8rLOQR5H11ijxiBF-9" value="Api &lt;br&gt;Gateway" style="sketch=0;outlineConnect=0;fontColor=#232F3E;gradientColor=none;fillColor=#000000;strokeColor=none;dashed=0;verticalLabelPosition=middle;verticalAlign=middle;align=center;html=1;fontSize=14;fontStyle=0;aspect=fixed;pointerEvents=1;shape=mxgraph.aws4.endpoint;fontFamily=Helvetica;labelBackgroundColor=none;labelPosition=left;spacing=2;spacingRight=26;" parent="1" vertex="1">
                    <mxGeometry x="510" y="489.5" width="40" height="40" as="geometry"/>
                </mxCell>
                <mxCell id="g_Jz8rLOQR5H11ijxiBF-11" value="" style="rounded=0;whiteSpace=wrap;html=1;sketch=0;fillStyle=solid;strokeColor=#000000;fillColor=none;fontSize=14;fontFamily=Helvetica;labelBackgroundColor=none;strokeWidth=2;" parent="1" vertex="1">
                    <mxGeometry x="869.89" y="385" width="118.06" height="90" as="geometry"/>
                </mxCell>
                <mxCell id="g_Jz8rLOQR5H11ijxiBF-12" value="Integration &lt;br style=&quot;font-size: 14px;&quot;&gt;Service Cluster" style="text;html=1;strokeColor=none;fillColor=none;align=left;verticalAlign=middle;whiteSpace=wrap;rounded=0;sketch=0;fillStyle=solid;fontSize=14;fontFamily=Helvetica;labelBackgroundColor=none;" parent="1" vertex="1">
                    <mxGeometry x="886.89" y="390" width="125.08" height="25" as="geometry"/>
                </mxCell>
                <mxCell id="g_Jz8rLOQR5H11ijxiBF-13" value="" style="verticalLabelPosition=bottom;html=1;verticalAlign=top;align=center;strokeColor=none;fillColor=#000000;shape=mxgraph.azure.cloud_service;rounded=1;sketch=0;fillStyle=solid;fontSize=14;fontFamily=Helvetica;labelBackgroundColor=none;" parent="1" vertex="1">
                    <mxGeometry x="869.8900000000001" y="387" width="16" height="16" as="geometry"/>
                </mxCell>
                <mxCell id="g_Jz8rLOQR5H11ijxiBF-115" value="" style="edgeStyle=orthogonalEdgeStyle;rounded=0;orthogonalLoop=1;jettySize=auto;html=1;fontFamily=Helvetica;fontSize=14;endArrow=block;endFill=1;strokeWidth=1.5;entryX=0;entryY=0.5;entryDx=0;entryDy=0;labelBackgroundColor=none;" parent="1" target="g_Jz8rLOQR5H11ijxiBF-11" edge="1">
                    <mxGeometry relative="1" as="geometry">
                        <mxPoint x="830" y="430" as="sourcePoint"/>
                        <Array as="points">
                            <mxPoint x="830" y="430"/>
                        </Array>
                    </mxGeometry>
                </mxCell>
                <mxCell id="g_Jz8rLOQR5H11ijxiBF-17" value="Dudhwala API" style="rounded=0;whiteSpace=wrap;html=1;sketch=0;fillColor=none;verticalAlign=top;fontSize=14;fontFamily=Helvetica;labelBackgroundColor=none;strokeWidth=2;" parent="1" vertex="1">
                    <mxGeometry x="710" y="330" width="120" height="190" as="geometry"/>
                </mxCell>
                <mxCell id="g_Jz8rLOQR5H11ijxiBF-18" value="Product Mgmt" style="rounded=0;whiteSpace=wrap;html=1;sketch=0;fillColor=none;fontSize=14;fontFamily=Helvetica;labelBackgroundColor=none;" parent="1" vertex="1">
                    <mxGeometry x="720.77" y="364.5" width="98.47" height="20.5" as="geometry"/>
                </mxCell>
                <mxCell id="g_Jz8rLOQR5H11ijxiBF-19" value="Customer Enrollment&amp;nbsp;" style="rounded=0;whiteSpace=wrap;html=1;sketch=0;fillColor=none;fontSize=14;fontFamily=Helvetica;labelBackgroundColor=none;" parent="1" vertex="1">
                    <mxGeometry x="720.77" y="400" width="98.47" height="32.75" as="geometry"/>
                </mxCell>
                <mxCell id="g_Jz8rLOQR5H11ijxiBF-20" value="Delivery" style="rounded=0;whiteSpace=wrap;html=1;sketch=0;fillColor=none;fontSize=14;fontFamily=Helvetica;labelBackgroundColor=none;" parent="1" vertex="1">
                    <mxGeometry x="720" y="447" width="98.47" height="30" as="geometry"/>
                </mxCell>
                <mxCell id="g_Jz8rLOQR5H11ijxiBF-21" value="Other APIs" style="rounded=0;whiteSpace=wrap;html=1;sketch=0;fillColor=none;fontSize=14;fontFamily=Helvetica;labelBackgroundColor=none;" parent="1" vertex="1">
                    <mxGeometry x="720" y="489.5" width="98.47" height="20.5" as="geometry"/>
                </mxCell>
                <mxCell id="g_Jz8rLOQR5H11ijxiBF-23" value="" style="rounded=0;whiteSpace=wrap;html=1;sketch=0;fillStyle=solid;fillColor=none;fontSize=14;fontFamily=Helvetica;labelBackgroundColor=none;strokeWidth=2;" parent="1" vertex="1">
                    <mxGeometry x="868.92" y="552" width="118.06" height="93" as="geometry"/>
                </mxCell>
                <mxCell id="g_Jz8rLOQR5H11ijxiBF-24" value="Base Framework Cluster" style="text;html=1;strokeColor=none;fillColor=none;align=left;verticalAlign=middle;whiteSpace=wrap;rounded=0;sketch=0;fillStyle=solid;fontSize=14;fontFamily=Helvetica;labelBackgroundColor=none;strokeWidth=2;" parent="1" vertex="1">
                    <mxGeometry x="886.89" y="566" width="96.08" height="20" as="geometry"/>
                </mxCell>
                <mxCell id="g_Jz8rLOQR5H11ijxiBF-25" value="" style="verticalLabelPosition=bottom;html=1;verticalAlign=top;align=center;strokeColor=none;fillColor=#000000;shape=mxgraph.azure.cloud_service;rounded=1;sketch=0;fillStyle=solid;fontSize=14;fontFamily=Helvetica;labelBackgroundColor=none;" parent="1" vertex="1">
                    <mxGeometry x="869.9200000000001" y="554" width="16" height="16" as="geometry"/>
                </mxCell>
                <mxCell id="g_Jz8rLOQR5H11ijxiBF-118" value="" style="edgeStyle=orthogonalEdgeStyle;rounded=0;orthogonalLoop=1;jettySize=auto;html=1;fontFamily=Helvetica;fontSize=14;endArrow=block;endFill=1;strokeWidth=1.5;exitX=1;exitY=0.25;exitDx=0;exitDy=0;labelBackgroundColor=none;" parent="1" source="g_Jz8rLOQR5H11ijxiBF-27" edge="1">
                    <mxGeometry relative="1" as="geometry">
                        <mxPoint x="869" y="570" as="targetPoint"/>
                        <Array as="points">
                            <mxPoint x="869" y="570"/>
                        </Array>
                    </mxGeometry>
                </mxCell>
                <mxCell id="g_Jz8rLOQR5H11ijxiBF-27" value="Base Framework API" style="rounded=0;whiteSpace=wrap;html=1;sketch=0;fillColor=none;verticalAlign=top;fontSize=14;fontFamily=Helvetica;labelBackgroundColor=none;strokeWidth=2;" parent="1" vertex="1">
                    <mxGeometry x="710" y="530" width="120" height="161" as="geometry"/>
                </mxCell>
                <mxCell id="g_Jz8rLOQR5H11ijxiBF-28" value="Audit" style="rounded=0;whiteSpace=wrap;html=1;sketch=0;fillColor=none;fontSize=14;fontFamily=Helvetica;labelBackgroundColor=none;" parent="1" vertex="1">
                    <mxGeometry x="720.77" y="570.5" width="98.47" height="20.5" as="geometry"/>
                </mxCell>
                <mxCell id="g_Jz8rLOQR5H11ijxiBF-29" value="Logging" style="rounded=0;whiteSpace=wrap;html=1;sketch=0;fillColor=none;fontSize=14;fontFamily=Helvetica;labelBackgroundColor=none;" parent="1" vertex="1">
                    <mxGeometry x="720.77" y="601.25" width="98.47" height="20.5" as="geometry"/>
                </mxCell>
                <mxCell id="g_Jz8rLOQR5H11ijxiBF-30" value="Identity" style="rounded=0;whiteSpace=wrap;html=1;sketch=0;fillColor=none;fontSize=14;fontFamily=Helvetica;labelBackgroundColor=none;" parent="1" vertex="1">
                    <mxGeometry x="720" y="631" width="98.47" height="20.5" as="geometry"/>
                </mxCell>
                <mxCell id="g_Jz8rLOQR5H11ijxiBF-31" value="Other APIs" style="rounded=0;whiteSpace=wrap;html=1;sketch=0;fillColor=none;fontSize=14;fontFamily=Helvetica;labelBackgroundColor=none;" parent="1" vertex="1">
                    <mxGeometry x="720" y="661" width="98.47" height="20.5" as="geometry"/>
                </mxCell>
                <mxCell id="g_Jz8rLOQR5H11ijxiBF-121" value="" style="edgeStyle=orthogonalEdgeStyle;rounded=0;orthogonalLoop=1;jettySize=auto;html=1;fontFamily=Helvetica;fontSize=14;endArrow=block;endFill=1;strokeWidth=1.5;labelBackgroundColor=none;" parent="1" source="g_Jz8rLOQR5H11ijxiBF-33" edge="1">
                    <mxGeometry relative="1" as="geometry">
                        <Array as="points">
                            <mxPoint x="930" y="476"/>
                        </Array>
                        <mxPoint x="929.8699999999999" y="499.6600000000003" as="sourcePoint"/>
                        <mxPoint x="929" y="476" as="targetPoint"/>
                    </mxGeometry>
                </mxCell>
                <mxCell id="g_Jz8rLOQR5H11ijxiBF-124" value="http" style="edgeLabel;html=1;align=center;verticalAlign=middle;resizable=0;points=[];fontSize=14;fontFamily=Helvetica;labelBackgroundColor=none;" parent="g_Jz8rLOQR5H11ijxiBF-121" vertex="1" connectable="0">
                    <mxGeometry x="-0.2457" relative="1" as="geometry">
                        <mxPoint x="19" y="-10" as="offset"/>
                    </mxGeometry>
                </mxCell>
                <mxCell id="g_Jz8rLOQR5H11ijxiBF-122" value="" style="edgeStyle=orthogonalEdgeStyle;rounded=0;orthogonalLoop=1;jettySize=auto;html=1;fontFamily=Helvetica;fontSize=14;endArrow=block;endFill=1;strokeWidth=1.5;labelBackgroundColor=none;" parent="1" edge="1">
                    <mxGeometry relative="1" as="geometry">
                        <Array as="points">
                            <mxPoint x="930" y="530"/>
                            <mxPoint x="930" y="530"/>
                        </Array>
                        <mxPoint x="930" y="522.5" as="sourcePoint"/>
                        <mxPoint x="930" y="550" as="targetPoint"/>
                    </mxGeometry>
                </mxCell>
                <mxCell id="g_Jz8rLOQR5H11ijxiBF-125" value="http" style="edgeLabel;html=1;align=center;verticalAlign=middle;resizable=0;points=[];fontSize=14;fontFamily=Helvetica;labelBackgroundColor=none;" parent="g_Jz8rLOQR5H11ijxiBF-122" vertex="1" connectable="0">
                    <mxGeometry x="0.5015" y="2" relative="1" as="geometry">
                        <mxPoint x="17" y="-3" as="offset"/>
                    </mxGeometry>
                </mxCell>
                <mxCell id="g_Jz8rLOQR5H11ijxiBF-33" value="Service&#10;Mesh" style="editableCssRules=.*;shape=image;verticalLabelPosition=middle;labelBackgroundColor=none;verticalAlign=middle;aspect=fixed;imageAspect=0;image=data:image/svg+xml,PHN2ZyB4bWxucz0iaHR0cDovL3d3dy53My5vcmcvMjAwMC9zdmciIHhtbG5zOnY9Imh0dHBzOi8vdmVjdGEuaW8vbmFubyIgd2lkdGg9IjM3My4xMTQ5NzU3NzgxNzE2NCIgaGVpZ2h0PSIzODMuMTM4MDM1MDYzOTUxOCIgdmlld0JveD0iMCAwIDk4LjcxOTk5MzU5MTMwODYgMTAxLjM3MjAwOTI3NzM0Mzc1Ij4mI3hhOzxzdHlsZSB0eXBlPSJ0ZXh0L2NzcyI+LnN0MCB7IGZpbGw6IHJnYigwLCAwLCAwKTsgfSA8L3N0eWxlPiYjeGE7CTxwYXRoIGNsYXNzPSJzdDAiIGQ9Ik02OC4xOTUgMGMtNS4wMTEgMC05LjA3NCA0LjA2Mi05LjA3NCA5LjA3My4wMDIuNzc5LjEwNSAxLjU1NS4zMDUgMi4zMDhMNDkuMzA1IDIxLjU4N2wtOS44MTEtOS41OTdjLjI2Mi0uODU5LjM5Ni0xLjc1MS4zOTYtMi42NDkgMC0yLjQwNy0uOTU2LTQuNzE1LTIuNjU4LTYuNDE2UzMzLjIyMy4yNjcgMzAuODE2LjI2N3MtNC43MTUuOTU2LTYuNDE2IDIuNjU4LTIuNjU4IDQuMDEtMi42NTggNi40MTYuOTU2IDQuNzE1IDIuNjU4IDYuNDE2IDQuMDEgMi42NTggNi40MTYgMi42NThjLjI5OS0uMDAyLjU5OC0uMDE4Ljg5NS0uMDVsMTAuNTUzIDEwLjMyMy0xNC42MjEgMTQuNzQyLTkuNDU2LTkuNzg4Yy4xNDQtLjY0NS4yMTYtMS4zMDMuMjE3LTEuOTY0IDAtNS4wMTEtNC4wNjItOS4wNzQtOS4wNzMtOS4wNzQtMi40MDcgMC00LjcxNS45NTYtNi40MTYgMi42NThTLjI1NyAyOS4yNzMuMjU3IDMxLjY3OXMuOTU2IDQuNzE1IDIuNjU4IDYuNDE2IDQuMDEgMi42NTggNi40MTYgMi42NThjLjU1OS0uMDAyIDEuMTE2LS4wNTYgMS42NjYtLjE2MWwzMS4wMzcgMzIuMTI2LTEwLjA4OCAxMC40MDVjLS4zODEtLjA0OS0uNzY1LS4wNzMtMS4xNDktLjA3My0yLjQwNyAwLTQuNzE1Ljk1Ni02LjQxNiAyLjY1OHMtMi42NTggNC4wMS0yLjY1OCA2LjQxNi45NTYgNC43MTUgMi42NTggNi40MTYgNC4wMSAyLjY1OCA2LjQxNiAyLjY1OCA0LjcxNS0uOTU2IDYuNDE2LTIuNjU4IDIuNjU4LTQuMDEgMi42NTgtNi40MTZjMC0uODMxLS4xMTUtMS42NTctLjM0LTIuNDU3bDI2LjMyNS0yNy4xNS03LjE4LTYuOTYzLTkuNjc3IDkuOTgxLTE0LjQwNi0xNC45MSAzMi4zMDEtMzIuNTczYy40MzEuMDYzLjg2Ni4wOTUgMS4zMDIuMDk2IDIuNDA3IDAgNC43MTUtLjk1NiA2LjQxNi0yLjY1OHMyLjY1OC00LjAxIDIuNjU4LTYuNDE2Qzc3LjI2OSA0LjA2MiA3My4yMDYgMCA2OC4xOTUgMHptMjEuNDUxIDIyLjQ0MWMtMi40MDcgMC00LjcxNS45NTYtNi40MTYgMi42NThzLTIuNjU4IDQuMDEtMi42NTggNi40MTZjLjAwMi41OTMuMDYyIDEuMTgzLjE3OSAxLjc2NEw3MC41MDQgNDMuNTM2bC05LjY1Ni05LjkzNy03LjE3NCA2Ljk2OUw4MC40OTUgNjguMTdjLS4xMS41NjItLjE2NiAxLjEzNC0uMTY4IDEuNzA3IDAgMi40MDcuOTU2IDQuNzE1IDIuNjU4IDYuNDE2czQuMDEgMi42NTggNi40MTYgMi42NThjNS4wMTEgMCA5LjA3My00LjA2MyA5LjA3My05LjA3NHMtNC4wNjItOS4wNzQtOS4wNzMtOS4wNzRjLS42NDUuMDAxLTEuMjg4LjA3MS0xLjkxOC4yMDhsLTEwLjAxLTEwLjMwNEw4Ny43ODEgNDAuMzljLjYxMy4xMyAxLjIzOC4xOTcgMS44NjUuMTk4IDIuNDA3IDAgNC43MTUtLjk1NiA2LjQxNi0yLjY1OHMyLjY1OC00LjAxIDIuNjU4LTYuNDE2LS45NTYtNC43MTUtMi42NTgtNi40MTYtNC4wMS0yLjY1OC02LjQxNi0yLjY1OHptLTczLjUzNCAzMy4yMmwtNS4wODEgNS4yNTdjLS42NDMtLjE0Mi0xLjI5OS0uMjE0LTEuOTU3LS4yMTQtMi40MDcgMC00LjcxNS45NTYtNi40MTYgMi42NThTMCA2Ny4zNzEgMCA2OS43NzdzLjk1NiA0LjcxNSAyLjY1OCA2LjQxNiA0LjAxIDIuNjU4IDYuNDE2IDIuNjU4IDQuNzE1LS45NTYgNi40MTYtMi42NTggMi42NTgtNC4wMSAyLjY1OC02LjQxNmMwLS41NjEtLjA1Mi0xLjEyMS0uMTU2LTEuNjcybDUuMzEtNS40OTJ6bTQ0LjIyMyAyMS43NmwtNi44OTMgNy4yNDQgNS41MTUgNS4yNDljLS4yMTQuNzc3LS4zMjMgMS41NzgtLjMyNSAyLjM4NCAwIDIuNDA3Ljk1NiA0LjcxNSAyLjY1OCA2LjQxNnM0LjAxIDIuNjU4IDYuNDE2IDIuNjU4IDQuNzE1LS45NTYgNi40MTYtMi42NTggMi42NTgtNC4wMSAyLjY1OC02LjQxNi0uOTU2LTQuNzE1LTIuNjU4LTYuNDE2LTQuMDEtMi42NTgtNi40MTYtMi42NThjLS4zOTcuMDAyLS43OTQuMDI5LTEuMTg3LjA4M3oiLz4mI3hhOzwvc3ZnPg==;sketch=0;strokeColor=#000000;fillColor=none;labelPosition=right;align=left;imageBackground=none;fontSize=14;fontFamily=Helvetica;" parent="1" vertex="1">
                    <mxGeometry x="921.95" y="503.5" width="20" height="20" as="geometry"/>
                </mxCell>
                <mxCell id="g_Jz8rLOQR5H11ijxiBF-37" value="Data Integration Tier" style="text;html=1;strokeColor=none;fillColor=none;align=left;verticalAlign=middle;whiteSpace=wrap;rounded=0;sketch=0;fillStyle=solid;fontSize=14;fontFamily=Helvetica;labelBackgroundColor=none;" parent="1" vertex="1">
                    <mxGeometry x="1070.68" y="219" width="146.32" height="20" as="geometry"/>
                </mxCell>
                <mxCell id="g_Jz8rLOQR5H11ijxiBF-38" value="" style="verticalLabelPosition=bottom;html=1;verticalAlign=top;align=center;strokeColor=none;fillColor=#000000;shape=mxgraph.azure.cloud_service;rounded=1;sketch=0;fillStyle=solid;fontSize=14;fontFamily=Helvetica;labelBackgroundColor=none;" parent="1" vertex="1">
                    <mxGeometry x="1052.3700000000001" y="221.88" width="16" height="16" as="geometry"/>
                </mxCell>
                <mxCell id="LsT0jUMCM1srLAy5CBVr-23" value="" style="edgeStyle=orthogonalEdgeStyle;rounded=0;orthogonalLoop=1;jettySize=auto;html=1;endArrow=none;endFill=0;strokeWidth=2;fontFamily=Helvetica;fontSize=14;startArrow=block;startFill=1;" parent="1" source="LsT0jUMCM1srLAy5CBVr-14" edge="1">
                    <mxGeometry relative="1" as="geometry">
                        <mxPoint x="1136" y="300" as="targetPoint"/>
                        <Array as="points">
                            <mxPoint x="1136" y="340"/>
                            <mxPoint x="1136" y="340"/>
                        </Array>
                    </mxGeometry>
                </mxCell>
                <mxCell id="g_Jz8rLOQR5H11ijxiBF-51" value="Data Pipeline&lt;br style=&quot;font-size: 14px;&quot;&gt;ETL" style="shape=parallelogram;perimeter=parallelogramPerimeter;whiteSpace=wrap;html=1;fixedSize=1;sketch=0;strokeColor=default;fillColor=none;fontSize=14;fontFamily=Helvetica;labelBackgroundColor=none;" parent="1" vertex="1">
                    <mxGeometry x="1075.68" y="437" width="120" height="40" as="geometry"/>
                </mxCell>
                <mxCell id="g_Jz8rLOQR5H11ijxiBF-58" value="" style="rounded=0;whiteSpace=wrap;html=1;sketch=0;fillStyle=solid;fillColor=#fff2cc;spacing=2;fontSize=14;fontFamily=Helvetica;labelBackgroundColor=none;strokeColor=default;strokeWidth=2;" parent="1" vertex="1">
                    <mxGeometry x="440" y="750" width="820" height="70" as="geometry"/>
                </mxCell>
                <mxCell id="g_Jz8rLOQR5H11ijxiBF-60" value="Security and Governance" style="text;html=1;strokeColor=none;fillColor=none;align=left;verticalAlign=middle;whiteSpace=wrap;rounded=0;sketch=0;fillStyle=solid;fontSize=14;fontFamily=Helvetica;labelBackgroundColor=none;" parent="1" vertex="1">
                    <mxGeometry x="458" y="749" width="412" height="20" as="geometry"/>
                </mxCell>
                <mxCell id="g_Jz8rLOQR5H11ijxiBF-61" value="" style="verticalLabelPosition=bottom;html=1;verticalAlign=top;align=center;strokeColor=none;fillColor=#000000;shape=mxgraph.azure.cloud_service;rounded=1;sketch=0;fillStyle=solid;fontSize=14;fontFamily=Helvetica;labelBackgroundColor=none;" parent="1" vertex="1">
                    <mxGeometry x="440" y="750" width="16" height="16" as="geometry"/>
                </mxCell>
                <mxCell id="g_Jz8rLOQR5H11ijxiBF-65" value="Infra Provisioning" style="rounded=1;whiteSpace=wrap;html=1;sketch=0;strokeColor=default;fillColor=none;fontSize=14;fontFamily=Helvetica;labelBackgroundColor=none;" parent="1" vertex="1">
                    <mxGeometry x="454.01" y="774" width="79.99" height="37" as="geometry"/>
                </mxCell>
                <mxCell id="g_Jz8rLOQR5H11ijxiBF-66" value="Infra&lt;br style=&quot;font-size: 14px;&quot;&gt;Monitoring" style="rounded=1;whiteSpace=wrap;html=1;sketch=0;strokeColor=default;fillColor=none;fontSize=14;fontFamily=Helvetica;labelBackgroundColor=none;" parent="1" vertex="1">
                    <mxGeometry x="600" y="774" width="70" height="37" as="geometry"/>
                </mxCell>
                <mxCell id="g_Jz8rLOQR5H11ijxiBF-67" value="Infra&lt;br style=&quot;font-size: 14px;&quot;&gt;RBAC" style="rounded=1;whiteSpace=wrap;html=1;sketch=0;strokeColor=default;fillColor=none;fontSize=14;fontFamily=Helvetica;labelBackgroundColor=none;" parent="1" vertex="1">
                    <mxGeometry x="726.5699999999999" y="774" width="70.41" height="37" as="geometry"/>
                </mxCell>
                <mxCell id="g_Jz8rLOQR5H11ijxiBF-68" value="App&lt;br style=&quot;font-size: 14px;&quot;&gt;Monitoring" style="rounded=1;whiteSpace=wrap;html=1;sketch=0;strokeColor=default;fillColor=none;fontSize=14;fontFamily=Helvetica;labelBackgroundColor=none;" parent="1" vertex="1">
                    <mxGeometry x="870" y="774" width="69.99" height="37" as="geometry"/>
                </mxCell>
                <mxCell id="g_Jz8rLOQR5H11ijxiBF-69" value="&amp;nbsp;Alerts" style="rounded=1;whiteSpace=wrap;html=1;sketch=0;strokeColor=default;fillColor=none;fontSize=14;fontFamily=Helvetica;labelBackgroundColor=none;" parent="1" vertex="1">
                    <mxGeometry x="996.98" y="774" width="86.97" height="37" as="geometry"/>
                </mxCell>
                <mxCell id="g_Jz8rLOQR5H11ijxiBF-70" value="App Deployment" style="rounded=1;whiteSpace=wrap;html=1;sketch=0;strokeColor=default;fillColor=none;fontSize=14;fontFamily=Helvetica;labelBackgroundColor=none;" parent="1" vertex="1">
                    <mxGeometry x="1140" y="774" width="83.02" height="37" as="geometry"/>
                </mxCell>
                <mxCell id="g_Jz8rLOQR5H11ijxiBF-142" value="" style="edgeStyle=orthogonalEdgeStyle;rounded=0;orthogonalLoop=1;jettySize=auto;html=1;fontFamily=Helvetica;fontSize=14;endArrow=block;endFill=1;strokeWidth=1.5;entryX=0.157;entryY=0.993;entryDx=0;entryDy=0;entryPerimeter=0;labelBackgroundColor=none;" parent="1" edge="1">
                    <mxGeometry relative="1" as="geometry">
                        <mxPoint x="812" y="749" as="sourcePoint"/>
                        <mxPoint x="812.06" y="728.5099999999998" as="targetPoint"/>
                    </mxGeometry>
                </mxCell>
                <mxCell id="g_Jz8rLOQR5H11ijxiBF-86" value="Dudhwala Channel" style="text;html=1;strokeColor=none;fillColor=none;align=left;verticalAlign=middle;whiteSpace=wrap;rounded=0;sketch=0;fillStyle=solid;fontSize=14;fontFamily=Helvetica;labelBackgroundColor=none;" parent="1" vertex="1">
                    <mxGeometry x="180" y="162.25" width="130" height="20" as="geometry"/>
                </mxCell>
                <mxCell id="g_Jz8rLOQR5H11ijxiBF-89" value="" style="outlineConnect=0;dashed=0;verticalLabelPosition=bottom;verticalAlign=top;align=center;html=1;shape=mxgraph.aws3.ec2_compute_container_3;fillColor=#000000;gradientColor=none;sketch=0;fontSize=14;strokeColor=default;fontFamily=Helvetica;labelBackgroundColor=none;" parent="1" vertex="1">
                    <mxGeometry x="897.95" y="432.75" width="60" height="34.5" as="geometry"/>
                </mxCell>
                <mxCell id="g_Jz8rLOQR5H11ijxiBF-90" value="" style="outlineConnect=0;dashed=0;verticalLabelPosition=bottom;verticalAlign=top;align=center;html=1;shape=mxgraph.aws3.ec2_compute_container_3;fillColor=#000000;gradientColor=none;sketch=0;fontSize=14;strokeColor=default;fontFamily=Helvetica;labelBackgroundColor=none;" parent="1" vertex="1">
                    <mxGeometry x="897.95" y="602.5" width="60" height="34.5" as="geometry"/>
                </mxCell>
                <mxCell id="g_Jz8rLOQR5H11ijxiBF-114" value="" style="edgeStyle=orthogonalEdgeStyle;rounded=0;orthogonalLoop=1;jettySize=auto;html=1;fontFamily=Helvetica;fontSize=14;endArrow=block;endFill=1;strokeWidth=2;entryX=0;entryY=0.25;entryDx=0;entryDy=0;labelBackgroundColor=none;" parent="1" target="g_Jz8rLOQR5H11ijxiBF-17" edge="1">
                    <mxGeometry relative="1" as="geometry">
                        <mxPoint x="630" y="510" as="sourcePoint"/>
                        <mxPoint x="720" y="620.5263157894738" as="targetPoint"/>
                        <Array as="points">
                            <mxPoint x="630" y="378"/>
                        </Array>
                    </mxGeometry>
                </mxCell>
                <mxCell id="g_Jz8rLOQR5H11ijxiBF-148" value="" style="edgeStyle=orthogonalEdgeStyle;rounded=0;orthogonalLoop=1;jettySize=auto;html=1;fontFamily=Helvetica;fontSize=14;endArrow=block;endFill=1;strokeWidth=1.5;exitX=0.352;exitY=1.021;exitDx=0;exitDy=0;exitPerimeter=0;labelBackgroundColor=none;" parent="1" edge="1">
                    <mxGeometry relative="1" as="geometry">
                        <mxPoint x="842.1599999999999" y="732.4699999999998" as="sourcePoint"/>
                        <mxPoint x="842" y="751" as="targetPoint"/>
                    </mxGeometry>
                </mxCell>
                <mxCell id="Ymq33q0fTEQCnjx2ZNob-4" value="Static Site Hosting" style="sketch=0;outlineConnect=0;fontColor=#232F3E;gradientColor=none;fillColor=#000000;strokeColor=none;dashed=0;verticalLabelPosition=top;verticalAlign=bottom;align=center;html=1;fontSize=14;fontStyle=0;aspect=fixed;pointerEvents=1;shape=mxgraph.aws4.cloudfront_functions;labelPosition=center;fontFamily=Helvetica;labelBackgroundColor=none;" parent="1" vertex="1">
                    <mxGeometry x="512.51" y="120" width="34.99" height="34.99" as="geometry"/>
                </mxCell>
                <mxCell id="Ymq33q0fTEQCnjx2ZNob-5" value="" style="edgeStyle=orthogonalEdgeStyle;rounded=0;orthogonalLoop=1;jettySize=auto;html=1;fontFamily=Helvetica;fontSize=14;endArrow=block;endFill=1;strokeWidth=2;labelBackgroundColor=none;startArrow=block;startFill=1;" parent="1" target="Ymq33q0fTEQCnjx2ZNob-4" edge="1">
                    <mxGeometry relative="1" as="geometry">
                        <mxPoint x="280" y="162" as="targetPoint"/>
                        <Array as="points">
                            <mxPoint x="590" y="130"/>
                            <mxPoint x="590" y="130"/>
                        </Array>
                        <mxPoint x="690" y="130" as="sourcePoint"/>
                    </mxGeometry>
                </mxCell>
                <mxCell id="LsT0jUMCM1srLAy5CBVr-22" value="" style="edgeStyle=orthogonalEdgeStyle;rounded=0;orthogonalLoop=1;jettySize=auto;html=1;endArrow=block;endFill=1;strokeWidth=2;fontFamily=Helvetica;fontSize=14;" parent="1" source="3" target="g_Jz8rLOQR5H11ijxiBF-51" edge="1">
                    <mxGeometry relative="1" as="geometry"/>
                </mxCell>
                <mxCell id="3" value="SQL Database Server" style="sketch=0;outlineConnect=0;fontColor=#232F3E;gradientColor=none;fillColor=#000000;strokeColor=none;dashed=0;verticalLabelPosition=bottom;verticalAlign=top;align=center;html=1;fontSize=14;fontStyle=0;aspect=fixed;pointerEvents=1;shape=mxgraph.aws4.iot_analytics_data_store;labelBackgroundColor=none;fontFamily=Helvetica;" parent="1" vertex="1">
                    <mxGeometry x="1122.53" y="522.5" width="26.31" height="38" as="geometry"/>
                </mxCell>
                <mxCell id="_JOmZp0t4t80IvsZKYu2-4" value="" style="edgeStyle=orthogonalEdgeStyle;rounded=0;orthogonalLoop=1;jettySize=auto;html=1;fontFamily=Helvetica;fontSize=14;endArrow=block;endFill=1;strokeWidth=2;labelBackgroundColor=none;exitX=1;exitY=0.5;exitDx=0;exitDy=0;" parent="1" source="g_Jz8rLOQR5H11ijxiBF-23" target="3" edge="1">
                    <mxGeometry relative="1" as="geometry">
                        <Array as="points">
                            <mxPoint x="1030" y="599"/>
                            <mxPoint x="1030" y="542"/>
                        </Array>
                        <mxPoint x="1070" y="495" as="targetPoint"/>
                        <mxPoint x="997.9499999999998" y="440" as="sourcePoint"/>
                    </mxGeometry>
                </mxCell>
                <mxCell id="_JOmZp0t4t80IvsZKYu2-5" value="https" style="edgeLabel;html=1;align=center;verticalAlign=middle;resizable=0;points=[];fontSize=14;fontFamily=Helvetica;labelBackgroundColor=none;horizontal=0;" parent="_JOmZp0t4t80IvsZKYu2-4" vertex="1" connectable="0">
                    <mxGeometry x="-0.4171" y="-1" relative="1" as="geometry">
                        <mxPoint x="6" y="-60" as="offset"/>
                    </mxGeometry>
                </mxCell>
                <mxCell id="_JOmZp0t4t80IvsZKYu2-6" value="" style="endArrow=none;html=1;rounded=0;exitX=1;exitY=0.5;exitDx=0;exitDy=0;strokeWidth=1.5;fontFamily=Helvetica;fontSize=14;" parent="1" source="g_Jz8rLOQR5H11ijxiBF-11" edge="1">
                    <mxGeometry width="50" height="50" relative="1" as="geometry">
                        <mxPoint x="960" y="535" as="sourcePoint"/>
                        <mxPoint x="1030" y="550" as="targetPoint"/>
                        <Array as="points">
                            <mxPoint x="1030" y="430"/>
                        </Array>
                    </mxGeometry>
                </mxCell>
                <mxCell id="_JOmZp0t4t80IvsZKYu2-14" value="" style="edgeStyle=orthogonalEdgeStyle;rounded=0;orthogonalLoop=1;jettySize=auto;html=1;fontFamily=Helvetica;fontSize=14;endArrow=block;endFill=1;strokeWidth=2;labelBackgroundColor=none;" parent="1" edge="1">
                    <mxGeometry relative="1" as="geometry">
                        <Array as="points">
                            <mxPoint x="1135" y="150"/>
                        </Array>
                        <mxPoint x="1135" y="260" as="targetPoint"/>
                        <mxPoint x="980" y="150" as="sourcePoint"/>
                    </mxGeometry>
                </mxCell>
                <mxCell id="LsT0jUMCM1srLAy5CBVr-8" value="Other Cloud &lt;br style=&quot;font-size: 14px;&quot;&gt;Services" style="text;html=1;align=center;verticalAlign=middle;resizable=0;points=[];autosize=1;strokeColor=none;fillColor=none;fontFamily=Helvetica;fontSize=14;" parent="1" vertex="1">
                    <mxGeometry x="918.95" y="246" width="100" height="50" as="geometry"/>
                </mxCell>
                <mxCell id="LsT0jUMCM1srLAy5CBVr-14" value="Enterprise &lt;br style=&quot;font-size: 14px;&quot;&gt;&lt;div style=&quot;font-size: 14px;&quot;&gt;&lt;span style=&quot;background-color: initial; font-size: 14px;&quot;&gt;Data&lt;/span&gt;&lt;/div&gt;Warehouse&lt;br style=&quot;font-size: 14px;&quot;&gt;(SQL)&amp;nbsp;" style="sketch=0;shadow=0;dashed=0;html=1;strokeColor=none;fillColor=#000000;labelPosition=right;verticalLabelPosition=middle;verticalAlign=middle;outlineConnect=0;align=left;shape=mxgraph.office.databases.database_server;fontSize=14;fontFamily=Helvetica;labelBackgroundColor=none;spacingRight=0;spacingLeft=4;" parent="1" vertex="1">
                    <mxGeometry x="1112.5700000000002" y="348.71000000000004" width="36.27" height="43.29" as="geometry"/>
                </mxCell>
                <mxCell id="LsT0jUMCM1srLAy5CBVr-33" style="edgeStyle=orthogonalEdgeStyle;rounded=0;sketch=0;orthogonalLoop=1;jettySize=auto;html=1;exitX=1;exitY=0.75;exitDx=0;exitDy=0;entryX=0.5;entryY=1;entryDx=0;entryDy=0;fontFamily=Helvetica;fontSize=14;fontColor=default;endArrow=none;endFill=0;strokeColor=#000000;strokeWidth=2;fontStyle=1" parent="1" edge="1">
                    <mxGeometry relative="1" as="geometry">
                        <mxPoint x="1122.93" y="264.25" as="sourcePoint"/>
                        <mxPoint x="1152.43" y="266.75" as="targetPoint"/>
                    </mxGeometry>
                </mxCell>
                <mxCell id="LsT0jUMCM1srLAy5CBVr-34" style="edgeStyle=orthogonalEdgeStyle;rounded=0;sketch=0;orthogonalLoop=1;jettySize=auto;html=1;exitX=0.5;exitY=1;exitDx=0;exitDy=0;entryX=0.5;entryY=0;entryDx=0;entryDy=0;fontFamily=Helvetica;fontSize=14;fontColor=default;endArrow=none;endFill=0;strokeColor=#000000;strokeWidth=2;fontStyle=1" parent="1" source="LsT0jUMCM1srLAy5CBVr-35" target="LsT0jUMCM1srLAy5CBVr-37" edge="1">
                    <mxGeometry relative="1" as="geometry"/>
                </mxCell>
                <mxCell id="LsT0jUMCM1srLAy5CBVr-35" value="" style="rounded=0;whiteSpace=wrap;html=1;labelBorderColor=none;fillStyle=auto;strokeColor=#000000;strokeWidth=2;fontFamily=Helvetica;fontSize=14;fontColor=default;fillColor=#000000;sketch=0;fontStyle=1" parent="1" vertex="1">
                    <mxGeometry x="1109.43" y="259.75" width="13.5" height="10" as="geometry"/>
                </mxCell>
                <mxCell id="LsT0jUMCM1srLAy5CBVr-36" value="" style="rounded=0;whiteSpace=wrap;html=1;labelBorderColor=none;fillStyle=auto;strokeColor=#000000;strokeWidth=2;fontFamily=Helvetica;fontSize=14;fontColor=default;fillColor=#000000;sketch=0;fontStyle=1" parent="1" vertex="1">
                    <mxGeometry x="1145.68" y="259.75" width="13.5" height="10" as="geometry"/>
                </mxCell>
                <mxCell id="LsT0jUMCM1srLAy5CBVr-37" value="" style="rounded=0;whiteSpace=wrap;html=1;labelBorderColor=none;fillStyle=auto;strokeColor=#000000;strokeWidth=2;fontFamily=Helvetica;fontSize=14;fontColor=default;fillColor=#000000;sketch=0;fontStyle=1" parent="1" vertex="1">
                    <mxGeometry x="1109.43" y="293.75" width="13.5" height="10" as="geometry"/>
                </mxCell>
                <mxCell id="LsT0jUMCM1srLAy5CBVr-38" value="" style="rounded=0;whiteSpace=wrap;html=1;labelBorderColor=none;fillStyle=auto;strokeColor=#000000;strokeWidth=2;fontFamily=Helvetica;fontSize=14;fontColor=default;fillColor=#000000;sketch=0;fontStyle=1" parent="1" vertex="1">
                    <mxGeometry x="1145.43" y="292.75" width="13.5" height="10" as="geometry"/>
                </mxCell>
                <mxCell id="LsT0jUMCM1srLAy5CBVr-39" style="edgeStyle=orthogonalEdgeStyle;rounded=0;sketch=0;orthogonalLoop=1;jettySize=auto;html=1;exitX=0.5;exitY=1;exitDx=0;exitDy=0;entryX=0.5;entryY=0;entryDx=0;entryDy=0;fontFamily=Helvetica;fontSize=14;fontColor=default;endArrow=none;endFill=0;strokeColor=#000000;strokeWidth=2;fontStyle=1" parent="1" edge="1">
                    <mxGeometry relative="1" as="geometry">
                        <mxPoint x="1152.18" y="268.75" as="sourcePoint"/>
                        <mxPoint x="1152.18" y="292.75" as="targetPoint"/>
                    </mxGeometry>
                </mxCell>
                <mxCell id="LsT0jUMCM1srLAy5CBVr-40" style="edgeStyle=orthogonalEdgeStyle;rounded=0;sketch=0;orthogonalLoop=1;jettySize=auto;html=1;exitX=1;exitY=0.75;exitDx=0;exitDy=0;entryX=0.5;entryY=1;entryDx=0;entryDy=0;fontFamily=Helvetica;fontSize=14;fontColor=default;endArrow=none;endFill=0;strokeColor=#000000;strokeWidth=2;fontStyle=1" parent="1" edge="1">
                    <mxGeometry relative="1" as="geometry">
                        <mxPoint x="1123.93" y="297.25" as="sourcePoint"/>
                        <mxPoint x="1153.43" y="299.75" as="targetPoint"/>
                    </mxGeometry>
                </mxCell>
                <mxCell id="LsT0jUMCM1srLAy5CBVr-50" value="" style="edgeStyle=orthogonalEdgeStyle;rounded=0;orthogonalLoop=1;jettySize=auto;html=1;endArrow=block;endFill=1;strokeWidth=2;fontFamily=Helvetica;fontSize=14;" parent="1" edge="1">
                    <mxGeometry relative="1" as="geometry">
                        <mxPoint x="1136.6666666666665" y="436.5" as="sourcePoint"/>
                        <mxPoint x="1136.6666666666665" y="391" as="targetPoint"/>
                    </mxGeometry>
                </mxCell>
                <mxCell id="LsT0jUMCM1srLAy5CBVr-51" value="SQL&lt;br&gt;Analysis&lt;br style=&quot;font-size: 14px;&quot;&gt;Service" style="text;html=1;align=center;verticalAlign=middle;resizable=0;points=[];autosize=1;strokeColor=none;fillColor=none;fontSize=14;fontFamily=Helvetica;" parent="1" vertex="1">
                    <mxGeometry x="1152.14" y="250.75" width="80" height="60" as="geometry"/>
                </mxCell>
                <mxCell id="5BH9znMpx7U9A1OHRUYY-6" value="" style="rounded=0;whiteSpace=wrap;html=1;labelBackgroundColor=none;fillColor=#f5f5f5;fontColor=#333333;strokeColor=#000000;strokeWidth=2;" parent="1" vertex="1">
                    <mxGeometry x="1300" width="120" height="920" as="geometry"/>
                </mxCell>
                <mxCell id="5BH9znMpx7U9A1OHRUYY-8" value="Supporting Frameworks" style="text;strokeColor=none;fillColor=none;align=center;verticalAlign=middle;rounded=0;fontSize=20;fontFamily=Helvetica;labelBackgroundColor=none;fontColor=#FF0080;fontStyle=0;shadow=0;sketch=0;html=1;whiteSpace=wrap;labelBorderColor=none;" parent="1" vertex="1">
                    <mxGeometry x="1330.01" y="-50" width="60" height="30" as="geometry"/>
                </mxCell>
                <mxCell id="5BH9znMpx7U9A1OHRUYY-11" value="" style="endArrow=none;html=1;rounded=0;entryX=1;entryY=0.5;entryDx=0;entryDy=0;exitX=0;exitY=0.5;exitDx=0;exitDy=0;" parent="1" source="5BH9znMpx7U9A1OHRUYY-6" target="5BH9znMpx7U9A1OHRUYY-6" edge="1">
                    <mxGeometry width="50" height="50" relative="1" as="geometry">
                        <mxPoint x="840" y="510" as="sourcePoint"/>
                        <mxPoint x="890" y="460" as="targetPoint"/>
                    </mxGeometry>
                </mxCell>
                <mxCell id="5BH9znMpx7U9A1OHRUYY-12" value="Backend&lt;br&gt;TBD" style="text;html=1;strokeColor=none;fillColor=none;align=center;verticalAlign=middle;whiteSpace=wrap;rounded=0;fontSize=14;fontFamily=Helvetica;labelBackgroundColor=none;" parent="1" vertex="1">
                    <mxGeometry x="1330.01" y="467.25" width="60" height="30" as="geometry"/>
                </mxCell>
                <mxCell id="5BH9znMpx7U9A1OHRUYY-16" value="Frontend&lt;br&gt;TBD" style="text;html=1;strokeColor=none;fillColor=none;align=center;verticalAlign=middle;whiteSpace=wrap;rounded=0;fontSize=14;fontFamily=Helvetica;labelBackgroundColor=none;" parent="1" vertex="1">
                    <mxGeometry x="1331.3799999999999" y="10" width="60" height="30" as="geometry"/>
                </mxCell>
                <mxCell id="5" value="" style="verticalLabelPosition=middle;html=1;verticalAlign=middle;align=right;strokeColor=none;fillColor=#000000;shape=mxgraph.azure.queue_generic;pointerEvents=1;labelBackgroundColor=none;direction=south;labelPosition=left;" parent="1" vertex="1">
                    <mxGeometry x="894.94" y="479" width="21.89" height="70" as="geometry"/>
                </mxCell>
                <mxCell id="7" value="Message Queue" style="text;html=1;strokeColor=none;fillColor=none;align=center;verticalAlign=middle;whiteSpace=wrap;rounded=0;sketch=0;fillStyle=solid;fontSize=14;fontFamily=Helvetica;labelBackgroundColor=none;direction=east;rotation=270;" parent="1" vertex="1">
                    <mxGeometry x="844.19" y="503.5" width="63.09" height="20" as="geometry"/>
                </mxCell>
                <mxCell id="8" value="" style="edgeStyle=orthogonalEdgeStyle;rounded=0;orthogonalLoop=1;jettySize=auto;html=1;fontFamily=Helvetica;fontSize=14;endArrow=block;endFill=1;strokeWidth=2;labelBackgroundColor=none;exitX=1;exitY=0.5;exitDx=0;exitDy=0;startArrow=block;startFill=1;exitPerimeter=0;" parent="1" source="ynAYVbjxXFCVVAlDxMAP-13" target="g_Jz8rLOQR5H11ijxiBF-9" edge="1">
                    <mxGeometry relative="1" as="geometry">
                        <mxPoint x="292" y="312" as="sourcePoint"/>
                        <mxPoint x="540.0666666666666" y="499.5" as="targetPoint"/>
                        <Array as="points">
                            <mxPoint x="530" y="580"/>
                        </Array>
                    </mxGeometry>
                </mxCell>
                <mxCell id="9" value="https" style="edgeLabel;html=1;align=center;verticalAlign=middle;resizable=0;points=[];fontSize=14;fontFamily=Helvetica;labelBackgroundColor=none;" parent="8" vertex="1" connectable="0">
                    <mxGeometry x="-0.3661" relative="1" as="geometry">
                        <mxPoint x="-62" y="-11" as="offset"/>
                    </mxGeometry>
                </mxCell>
            </root>
        </mxGraphModel>
    </diagram>
</mxfile>